<?xml version="1.0" encoding="UTF-8"?>
<svg width="42px" height="38px" viewBox="0 0 42 38" version="1.1" xmlns="http://www.w3.org/2000/svg" xmlns:xlink="http://www.w3.org/1999/xlink">
    <title>mark</title>
    <g id="mark" stroke="none" stroke-width="1" fill="none" fill-rule="evenodd">
        <g transform="translate(0.000000, 6.000000)">
            <path d="M39.1275136,13.1469052 L42,0 L34.0298385,13.131747 C35.7326824,13.028507 37.4365505,13.0293264 39.1275136,13.1469052" id="Fill-22" fill="#3895D3"></path>
            <path d="M34.0298385,13.131747 L42,0 L5.88938582,23.1652726 C10.8780854,20.1776655 16.0417193,17.5139121 21.5392441,15.6527261 C25.556997,14.2925813 29.7904476,13.3892322 34.0298385,13.131747" id="Fill-23" fill="#58CCED"></path>
            <path d="M34.0298385,13.131747 L30.1132771,19.5850603 L36.1132771,26.9435663 L39.1275136,13.1469052 C37.4365505,13.0293264 35.7326824,13.028507 34.0298385,13.131747" id="Fill-24" fill="#072F5F"></path>
            <path d="M30.1132771,19.5850603 L34.0298385,13.131747 C29.7904476,13.3892322 25.556997,14.2925813 21.5392441,15.6527261 C16.0417193,17.5139121 10.8780854,20.1776655 5.88938582,23.1652726 L0,26.9435663 L30.1132771,19.5850603" id="Fill-25" fill="#1261A0"></path>
        </g>
    </g>
</svg>